/* XPM */
static char *a30fa5c944854021d5204d3e62068739LDYmzcF608MWeoxD[] = {
/* columns rows colors chars-per-pixel */
"64 64 22 1 ",
"  c black",
". c #252300",
"X c #2C2900",
"o c #333000",
"O c #3A3600",
"+ c #202020",
"@ c #2C2C2C",
"# c gray22",
"$ c #413D00",
"% c #484300",
"& c #4F4A00",
"* c #585300",
"= c #5F5900",
"- c #666000",
"; c #6D6600",
": c #746D00",
"> c #7B7300",
", c #484848",
"< c gray33",
"1 c #646464",
"2 c #827A00",
"3 c #898000",
/* pixels */
"                                                                ",
"<#<,,,,,<,,,,,,<,#,,,,,,,<<<<<<,,,,,,,,,<<<<<<<,,,,###,,<<,,,,,#",
"#33>>>>>>>>>=,,<33>>>>>>>>>>>>>>>>>>=,#<3333222222>>>>>::::;;;=,",
",3:-->&=>&:=O@,<3;&;&;&;%;*;*;%;%;:=$@,#>=:-:--:$:%:-:&-=%:*:=%@",
",>=%=&=*$=&$O@,<>;&&=&$==$*==$*=$=*$o@,<>==%O=&$&=%&==&=%&=o=$O@",
",>%==$*==$=o.@,<>&;=&=$=&=$=$&%=$*%$o@,,>$=O&=O=$=%=&=O=*%=%=$X@",
",:=%&*%=$&=$.@,<;;&=&&*=$&$=&$*%&$=$.@#,;$=%=&O=$$==$=&==%=o=&X@",
",;%==$=*$*$o.@,,;:&=$=$=$=$*&$%=$*%$o@#,;*=O&=%&$&%=&=O=%&=%=$.@",
",;=$&o$%o$&$.@#<**$$X&$$&$X$&$&$X&$$.@#,;$$o$$X&X$o&X$X&OX$&$&.@",
",%OOO........@#,%OOooooooooo.........@#,&OOOOOOOOOOooooooooo...@",
",,@@@@@@@@+++@#<,@@@@@+++++@@++++@@@@@,<#@@@@@@@@@@@+++++@@@@@@@",
"<####,,,,#####,#,,,,,,,###<,,,##,,,,,,<#,<<<<1111<<,,###<#<,,,<#",
"3>>>;;;;;;;;;;;=,<,33>>>>>>:::::::;;;;;;;;;;;;;;;;;;=,#<33>>>>>>",
"-&&-*%-%*&-O-&=.#,<3$-:%;O&;&&:*=&%&=&=&=%:O:&*;:*:=.#,#3:%-&-&-",
"&=&=%&&O=&O&==$.@,,>-$=%==&=O=$O&=%=%=O==&O=&=$&=$=$.#,<:-%=&%=*",
"$==&*O=%&&*O=&$.@#,>$=&*&&O&&$=&O=&%O%&&=o&%=$=$==$$.@,,:%===%=%",
"=&&=&%%&%=*O=O$.@#,>$==%=O&=O$=O&=%&%=O=&o=O=$&$=$=$.@#,:-%=%=*%",
"$=O=$&%*O=O&==$.@,<>-o=%=&O&o&$O=&%o%=O&o&=O&=$&=$=$.+#,-%==o=%&",
"$-O$X%$*$*$o*$$.@,<-=$&o$*$&O$&o$*$*O&$&&o*$$&X$*$&$.+,<-=%$o$*$",
".XXXXXXXXXXXX...#,<=OOOOOOOOOOOOOoooooooooooooooooo..+,#=O.O..O.",
"@@@+@@@+++@@@++@#,#,#@@@@@@@#####@@@+++++@@@++++@@@@@#,<,@@@@@@@",
"<<,##,<#<#,,####,,<,,,<#,#,#<,,,<#<,,###,,,,<###,,,,<,<#<###<,,,",
"<33>>>>>>>;;;;;;;;;;;;;;;;;=,<<33>>>>>>>>>>;;;;;;;;;;;;;;;;;;;=,",
"<3&-;%;%;%-&-&-:&-&-&;-O-:$.#,<3;$>=-&=-&-*-%O=&$&=%&=*&=%&=o=.@",
"#3-&=*=%$&==&*&=&O=$=&O&=$-.@,1>;*=O=O&$*&O=O&=O=$=%=&=O=*%=%$.@",
",;O==$&o=O=$=&*=O&=$&=&O%=$.@<1>;%=%=O=$*=%=%=&O=$$=*$*&==%=o$.@",
",;-&=X=o$&=&$%=%&O%=O=&O=$o.@<1>$=$*&O&*$=O&O&=%&$&%=&=O=%&=%$.@",
"<;$O=X&%=O=o=O=&O&=&O=O&%%-.@,<>:$=$=&=&$=O=o$$X=X=o=X==&OX$&$.@",
",:=O$$$o$X$$&O&$$&$$O$*$*$$.@#<:=$*$&o$$$$O&$&X=o$=X$&X=o=X=$$.@",
",=*OOOOOOOOOOOOOOXXXXXXXXX..@#<=OOOOOOOOOOOOOOoooooooooooo.o%o.@",
",,#@@@@@@@@@@@@@@@@@###@@@@@@,,,@@@@@@@@+++++@###@+++@@@@@@@@@@@",
"<<<<<,,#,###,<11<<<,,,,###,###<,,,<#<,<,,#,#,,<<,,,#,,,,<#<,,,<#",
";;;;;;;;;;=,#<>>>>>>>>;;;;;;;;;;;;;;;;;=,<<:3>>>>>>>>>;;;;;;;;;;",
"=-=-*:--:=.#,#>=O=$==O=&==$=&O==O==$=%=.#,<>=%=$==O=%&%=$=&=%=$=",
"=%&=*=%=&$.@,<>O=%&=%=*$=&&$&&=&O=$&=O=.#<<>=o=$=&O=&=%&&*$*%*&$",
"&%=*%=%*=$.@,#>O==%*=$=$=&=o=X&&=&$*=%=.#<1>=%=$=&=&==%=$*&=*%=$",
"=&%=*=*%&$.#,<>*O=%=%o*&&&$&=O=&O&*$&=%.#<1>%==$=O==%%=%=&**&%$&",
"=&%=%=%*=$.#,,>O=%o*=$&&=&=$&XO*O=*$=%=.#,<:=%==$=&&%=%=$*&=%&=$",
"$$&*$$*$$$.#,,*O==o=%$=$=O=o&O=&O*$*=O%.@,<:=o=$==&=&=%=$*$*%==$",
"..XXXXXXX..@,,=OOOOOOOOOoooooooooooooo..@,,=OOOOOOOOOOOOOOOoooo.",
"@@@@@@@@@@@@,<,@++++@@###@+++++@@@@@@@@@#,,,@@@@##,#@@+++@@@@@@@",
"<,<#,##,,####,,###,,,,,<<,,###<,,,<#,#,#,,<,<#<,<11<<,,#<,<,<#<#",
"#3>>>>>>>;;;;;;;;;;;;;;;;;;;;;;=#<#33>>>>>>>>;;;;;;;;;;;;;;;;;=,",
"<>=&&=O==%*=%=$&=O=%=&=O=O==%$=.#,<3==O=O=o=$=o=&o*&$=&%=%*$&=.@",
",>=O=&O=&*%=O&o=*O=o&*&O=%=%=$*.@,,>&=O&O%o&o*%=o=O=$&$=&%*=O&.@",
",>&O=O&$O=O=&%&=O*&&o%=X*o&O&&$.@#,>&=OO&=%o=%o*=o=$$=$=%=$&O=.@",
"#>=&=&O=&%*=%=o&=O=o&=o*=%===$%.@#,>=O=&O=o=$*%%o&O=%&*&*%$=&=.@",
"<>=O&=O=O=O=O=$=OO=o&%=%&O*O&$=.+#<>=OO=O%o=o=o*o=O&$=$%=%*&O$.@",
"#:=O=O&$&*%=&&&=*O&%oO=X=$*%=$=.+#<:$=O&O=o%=%o*$&O=$=$=%*$=O=.@",
"<=OOOOOOOOOXXXXXXXXXXXXXXXXXXXX.@,<=OOOOOOOOOoooooXXXXXXXXXXX..@",
"#,@@@@@@@@@@###@++++@@@++++@@++@@,#,@@@@@@+++@###@+@@@@+++@@@@@@",
"<#<#<,<,,,,<11<,<#<,<,,###,,<,,#,,<#<,,,,,,,,<<<<<,,,,##++##,,<,",
">>>>>;;;;;;;;;;;;=,<,33>>>>>>>>;;;;;;;;;;;;;;;=,#<3>>>>>;;;;;;;;",
"%=o==O*O=%:%=O=%=.@,,>====O=X=%=O=O=*=O=O=o=$O.#,<>=O&=o=$=$=O=$",
"=%%=%=O*%O=o%O&O&.@,,>%=$=O$X%*%=&O&*O%&$&o=O=.#,<>O=o=$=$&=$=&X",
"=%o%=O*O%=%o=&O*%.@,,>%%$=O%%=o=X==O=O=O&o&&O$.@,<>O=$$==&$&$O$&",
"%*o*OO=O=%=o%$O=O.@,#>=X$=O=X=%*O=O&%O=O=&o$*O.@,<>=Oo=&$$=$=O$=",
"O=%=O=O&=O=%o&=%&.@,<>X==O=%$&o%X=O=O%%O&$o&$O.@,,>O=&=$=&$$o=$=",
"O=%%O**O*O%o=O=O*.@,,>X=$=O%%&X*O&X=%O=&O=o=o&.@#,>O=o$o=$=$oO=X",
"%*o=OO&O%%=o=O$&%.@,<:=X$=O=X&O=O=$O=O%=O&$&O&.@#,:OOo=o=$=$=O=$",
"XXXXXXXXXXXXXXXX..@,,=.....XXXXXXXXXXXXXXXXXX..+,<=..XXXXXXXXXXX",
"@@@@@@@@@@@@@@@@@@@,<,##@@@@@@@@@@@@@@@+++++@+++#,,@@@@@@+++++@@",
"#<#<###,,,,,<<#,,,,<<<<<,,,<,,,<,,#,,,,##,##,,###<,,#<,,,,###,,,",
"                                                                "
};
